<?xml version="1.0" standalone="no"?>
<!DOCTYPE svg PUBLIC "-//W3C//DTD SVG 20010904//EN"
 "http://www.w3.org/TR/2001/REC-SVG-20010904/DTD/svg10.dtd">
<svg version="1.0" xmlns="http://www.w3.org/2000/svg"
 width="300.000000pt" height="300.000000pt" viewBox="0 0 300.000000 300.000000"
 preserveAspectRatio="xMidYMid meet">
<metadata>
Created by potrace 1.11, written by Peter Selinger 2001-2013
</metadata>
<g transform="translate(0.000000,300.000000) scale(0.100000,-0.100000)"
fill="#000000" stroke="none">
<path d="M255 2841 c-11 -5 -29 -19 -40 -31 -18 -20 -20 -37 -20 -213 -1 -120
3 -197 9 -206 8 -11 8 -13 -1 -8 -13 8 -12 -30 2 -52 5 -10 4 -12 -3 -7 -16
10 -15 -7 1 -23 10 -11 9 -12 -3 -6 -13 8 -13 7 -1 -8 7 -9 9 -17 4 -17 -5 0
-9 -11 -9 -25 0 -14 5 -25 11 -25 5 0 4 -4 -3 -9 -17 -11 -17 -21 0 -32 7 -5
8 -9 2 -9 -6 0 -10 -30 -10 -77 1 -67 4 -80 21 -91 20 -13 20 -13 0 -8 -19 5
-20 1 -19 -71 1 -48 5 -78 13 -81 7 -2 9 3 5 15 -4 13 0 11 15 -7 20 -25 25
-36 22 -54 -1 -5 6 -5 16 -2 14 6 15 4 6 -5 -9 -9 -18 -6 -40 11 -16 14 -20
20 -10 17 11 -4 17 -3 15 4 -2 6 -7 10 -11 10 -4 -1 -13 -1 -19 -1 -7 0 -13
-11 -13 -25 0 -14 3 -25 7 -25 4 0 3 -11 -2 -25 -7 -17 -6 -25 1 -25 8 0 8 -4
1 -12 -5 -7 -6 -22 -3 -32 7 -17 8 -17 14 -3 3 9 4 26 2 38 -2 12 0 30 6 40 6
13 6 19 -1 19 -5 0 -10 5 -10 10 0 6 11 3 25 -7 26 -19 28 -39 2 -37 -9 1 -15
-6 -14 -17 2 -28 15 -23 38 13 14 23 19 27 17 13 -2 -11 -7 -23 -12 -27 -5 -3
-11 -16 -13 -29 -3 -17 -1 -19 10 -11 10 9 14 8 14 -3 0 -7 -5 -13 -10 -12 -5
1 -12 -4 -14 -11 -3 -7 1 -11 8 -10 10 2 13 -43 14 -213 l1 -217 -26 -16 c-21
-12 -30 -13 -40 -3 -10 9 -10 7 0 -7 14 -18 13 -19 -5 -12 -15 5 -17 4 -8 -5
9 -9 19 -6 43 11 17 12 34 19 37 16 4 -3 -2 -12 -12 -20 -14 -10 -15 -15 -5
-21 9 -5 11 -4 6 3 -4 7 -2 12 4 12 7 0 9 -8 5 -20 -3 -11 -3 -20 2 -20 4 0
15 -5 23 -10 13 -8 12 -11 -5 -25 -19 -16 -19 -16 3 -5 13 7 26 9 30 6 3 -3 3
-6 -1 -6 -3 0 32 -38 79 -85 50 -50 82 -90 78 -97 -4 -6 -3 -8 3 -5 13 8 216
-201 208 -214 -4 -5 -1 -8 7 -7 7 2 12 -3 10 -10 -1 -8 2 -11 6 -8 12 7 44
-28 35 -38 -5 -4 -1 -6 7 -4 8 2 14 -3 12 -10 -1 -8 1 -11 6 -8 7 4 152 -141
313 -315 l37 -39 764 0 764 0 0 305 c-1 168 1 305 5 305 3 0 2 25 -1 55 -3 30
-4 55 -1 55 2 0 14 -8 25 -18 16 -13 18 -13 8 -1 -6 9 -8 19 -4 23 4 4 1 6 -7
4 -8 -2 -17 8 -22 24 -4 16 -4 28 -1 28 11 0 8 90 -3 91 -5 0 0 4 13 9 12 5
22 15 21 22 0 10 -2 10 -6 1 -2 -7 -9 -13 -14 -13 -6 0 -7 5 -4 10 3 6 2 10
-3 10 -4 0 -6 22 -2 50 4 28 4 50 1 50 -4 0 -5 17 -3 38 7 93 6 142 -3 142 -5
0 -4 4 3 9 18 11 18 12 3 40 -7 13 -9 21 -3 17 12 -7 10 54 -3 74 -6 9 -4 11
5 5 9 -5 10 -2 5 14 -4 13 -2 21 6 21 8 0 8 4 2 13 -5 6 -9 44 -8 82 0 39 -4
77 -9 85 -6 8 -1 7 12 -4 12 -11 25 -16 29 -12 5 4 0 12 -10 18 -14 7 -17 17
-12 35 3 13 2 22 -2 20 -5 -3 -9 3 -9 14 0 19 1 19 12 2 16 -23 53 -69 82
-100 12 -13 20 -28 17 -33 -3 -4 6 -7 20 -6 14 0 26 8 26 16 5 42 4 57 -4 73
-4 10 -12 15 -18 12 -5 -4 -9 -1 -9 5 0 7 8 9 20 5 25 -8 26 3 3 21 -18 13
-42 20 -30 8 3 -4 -3 -14 -15 -24 -14 -11 -18 -21 -13 -30 7 -11 10 -9 16 6 6
16 8 16 8 2 1 -29 -16 -30 -44 -2 -22 21 -22 25 -6 19 14 -4 25 1 37 20 9 14
23 24 30 21 7 -3 15 -2 17 2 2 4 2 1 0 -6 -1 -7 2 -10 7 -7 12 7 2 57 -14 67
-6 4 -7 8 -3 8 5 0 1 7 -7 16 -16 15 -36 12 -36 -7 0 -6 6 -7 13 -3 7 5 7 1
-3 -12 -8 -10 -15 -21 -17 -23 -1 -2 -1 7 -1 20 1 13 6 30 12 37 7 10 1 22
-26 47 -20 19 -38 31 -42 28 -3 -4 -6 -1 -6 6 0 17 -479 497 -492 493 -5 -1
-7 1 -5 6 3 4 -55 68 -129 142 l-134 135 -827 2 c-456 1 -837 -2 -848 -6z m12
-496 c0 -8 -4 -12 -9 -9 -5 3 -6 10 -3 15 9 13 12 11 12 -6z m2043 -1 c0 -8
-19 -13 -24 -6 -3 5 1 9 9 9 8 0 15 -2 15 -3z m56 -6 c3 -4 -1 -5 -10 -4 -8 1
-18 5 -22 8 -3 4 1 5 10 4 8 -1 18 -5 22 -8z m-2116 -54 c0 -8 -19 -13 -24 -6
-3 5 1 9 9 9 8 0 15 -2 15 -3z m2115 -3 c3 -5 2 -12 -3 -15 -5 -3 -9 1 -9 9 0
17 3 19 12 6z m-2118 -157 c-8 -8 -48 -13 -43 -6 2 4 14 8 26 9 12 1 20 0 17
-3z m2319 -30 c3 -16 2 -26 -1 -23 -3 4 -8 19 -11 35 -3 16 -2 26 1 23 3 -4 8
-19 11 -35z m-2343 -9 c-3 -9 -8 -14 -10 -11 -3 3 -2 9 2 15 9 16 15 13 8 -4z
m51 -7 c-3 -4 -9 -8 -15 -8 -5 0 -9 4 -9 8 0 5 7 9 15 9 8 0 12 -4 9 -9z
m2393 -5 c0 -8 -7 -9 -23 -3 -12 5 -24 6 -27 4 -3 -3 -7 -2 -10 3 -3 5 9 8 27
8 18 0 33 -5 33 -12z m-62 -12 c3 -6 -3 -14 -13 -20 -14 -7 -19 -6 -19 4 0 7
7 11 15 7 10 -3 13 -1 8 6 -4 7 -5 12 -2 12 3 0 7 -4 11 -9z m-2388 -23 c-3
-8 -6 -5 -6 6 -1 11 2 17 5 13 3 -3 4 -12 1 -19z m2474 -1 c-6 -8 -8 -17 -4
-20 3 -4 1 -7 -5 -7 -15 0 -15 13 0 28 16 16 23 15 9 -1z m-58 -18 c-8 -8 -13
-7 -18 2 -5 8 -4 10 3 5 7 -4 12 -2 12 5 0 7 3 9 7 6 4 -4 2 -12 -4 -18z m-38
1 c-3 -5 -12 -10 -18 -10 -7 0 -6 4 3 10 19 12 23 12 15 0z m-2345 -10 c8 -5
11 -10 5 -10 -5 0 -17 5 -25 10 -8 5 -10 10 -5 10 6 0 17 -5 25 -10z m2480 0
c-8 -5 -19 -10 -25 -10 -5 0 -3 5 5 10 8 5 20 10 25 10 6 0 3 -5 -5 -10z m-76
-15 c-4 -8 -11 -12 -16 -9 -6 4 -5 10 3 15 19 12 19 11 13 -6z m101 5 c-3 -5
-12 -10 -18 -10 -7 0 -6 4 3 10 19 12 23 12 15 0z m-65 -10 c0 -5 -5 -10 -11
-10 -5 0 -7 5 -4 10 3 6 8 10 11 10 2 0 4 -4 4 -10z m-2447 -15 c-3 -9 -8 -14
-10 -11 -3 3 -2 9 2 15 9 16 15 13 8 -4z m2381 7 c3 -5 -1 -9 -9 -9 -8 0 -12
4 -9 9 3 4 7 8 9 8 2 0 6 -4 9 -8z m-2349 -22 c3 -6 -1 -7 -9 -4 -18 7 -21 14
-7 14 6 0 13 -4 16 -10z m2400 0 c3 -6 -1 -7 -9 -4 -18 7 -21 14 -7 14 6 0 13
-4 16 -10z m35 0 c0 -5 -4 -10 -10 -10 -5 0 -10 5 -10 10 0 6 5 10 10 10 6 0
10 -4 10 -10z m-2485 -21 c-4 -5 -12 -9 -18 -8 -9 0 -8 2 1 6 6 2 9 10 6 15
-4 7 -2 8 5 4 6 -4 9 -12 6 -17z m2445 -4 c0 -2 -6 -7 -12 -11 -7 -4 -10 -4
-6 1 4 4 0 14 -10 22 -15 13 -15 13 6 3 12 -6 22 -13 22 -15z m-2407 9 c9 -10
-12 -46 -24 -39 -5 4 -9 1 -9 -4 0 -6 -5 -11 -10 -11 -6 0 -5 8 2 20 7 11 15
15 19 9 4 -7 8 -5 12 5 3 8 1 17 -6 20 -7 3 -8 5 -1 5 6 1 14 -2 17 -5z m2538
-11 c13 -17 13 -17 -5 -3 -18 14 -19 13 -13 -3 4 -11 3 -16 -3 -12 -6 3 -10 1
-10 -6 0 -7 -3 -10 -6 -7 -5 6 12 48 20 48 2 0 10 -8 17 -17z m-111 -8 c0 -8
-4 -15 -10 -15 -5 0 -7 7 -4 15 4 8 8 15 10 15 2 0 4 -7 4 -15z m50 -1 c0 -2
-7 -4 -15 -4 -8 0 -15 4 -15 10 0 5 7 7 15 4 8 -4 15 -8 15 -10z m-33 -28 c-3
-8 -1 -17 6 -20 9 -3 9 -5 0 -5 -15 -1 -26 16 -18 29 9 15 18 12 12 -4z m38 4
c-3 -5 -11 -10 -16 -10 -6 0 -7 5 -4 10 3 6 11 10 16 10 6 0 7 -4 4 -10z
m-2475 -21 c12 -8 10 -9 -8 -4 -21 6 -23 5 -13 -13 6 -12 16 -24 21 -27 6 -3
10 -11 10 -18 0 -6 -11 4 -25 23 -31 42 -22 65 15 39z m2485 1 c-3 -5 -12 -10
-18 -10 -7 0 -6 4 3 10 19 12 23 12 15 0z m55 -60 c0 -5 -5 -10 -12 -10 -6 0
-4 -6 6 -13 16 -12 16 -13 -7 -12 -14 0 -29 4 -33 8 -5 4 0 5 9 1 10 -3 17 -3
16 2 -3 19 1 34 11 34 6 0 10 -4 10 -10z"/>
<path d="M2680 1838 c0 -9 7 -19 16 -22 11 -4 13 -12 8 -28 -6 -21 -6 -22 12
-8 18 14 18 14 5 -3 -8 -9 -11 -21 -7 -24 7 -7 26 14 26 30 0 4 -13 21 -30 39
-20 21 -30 26 -30 16z"/>
<path d="M2674 1724 c0 -38 4 -72 9 -75 5 -4 6 -13 2 -20 -11 -17 -15 -79 -6
-79 4 0 11 3 17 8 5 4 1 -1 -9 -10 -11 -10 -15 -18 -10 -18 5 0 10 -7 10 -15
0 -8 -5 -15 -11 -15 -6 0 -4 -5 4 -10 13 -9 13 -10 0 -10 -13 0 -13 -1 0 -10
12 -8 12 -10 1 -10 -10 0 -11 -3 -2 -14 9 -11 9 -15 -1 -19 -10 -4 -10 -6 0
-6 13 -1 17 -31 4 -31 -4 0 -8 -11 -8 -25 0 -14 4 -25 8 -25 8 0 12 16 8 39
-1 11 2 12 12 4 7 -6 31 -9 53 -8 37 3 38 2 21 -11 -16 -11 -22 -11 -28 -1 -6
9 -10 9 -17 -1 -4 -8 -12 -13 -17 -13 -5 0 -9 -7 -9 -16 0 -9 -6 -18 -14 -21
-8 -3 -11 0 -8 5 3 5 0 10 -8 10 -9 0 -11 -5 -7 -11 4 -6 7 -25 7 -43 0 -18 1
-30 4 -27 2 2 12 -3 22 -12 13 -12 19 -12 25 -3 4 8 3 10 -4 5 -13 -8 -46 38
-39 56 3 8 10 2 17 -14 13 -27 40 -39 40 -18 0 6 -5 9 -11 8 -6 -2 -14 3 -17
11 -2 8 0 11 6 8 5 -4 16 0 23 9 12 14 14 14 25 -1 8 -10 14 -12 19 -5 3 5 11
8 16 5 5 -4 10 -3 10 2 1 4 3 17 4 28 2 11 4 27 6 35 2 8 -3 14 -11 15 -17 0
-27 35 -10 35 6 0 9 -4 6 -8 -3 -5 1 -9 9 -9 11 0 12 4 4 14 -9 10 -8 13 2 13
9 0 10 3 4 8 -9 6 -12 26 -5 35 7 9 6 36 -2 31 -12 -8 -6 29 6 38 6 4 5 12 -2
21 -7 7 -9 17 -5 21 10 10 11 46 1 40 -10 -6 -11 10 -1 20 11 11 12 36 1 36
-6 0 -8 -7 -4 -15 5 -13 2 -14 -15 -5 -20 11 -20 11 -5 -19 11 -21 13 -32 5
-37 -8 -4 -7 -9 2 -15 12 -7 12 -9 0 -9 -8 0 -11 -6 -7 -17 5 -11 -1 -9 -17 7
-13 14 -22 28 -20 32 2 4 -2 10 -8 14 -7 4 -9 3 -6 -3 3 -5 -7 -9 -24 -9 -16
0 -29 4 -29 8 0 5 10 7 23 4 12 -3 16 -3 9 0 -6 3 -9 11 -5 17 17 28 11 40 -8
17 -12 -14 -18 -19 -14 -13 3 7 1 22 -5 34 -10 18 -9 19 7 11 20 -10 43 -6 43
9 0 5 -11 7 -25 5 -14 -3 -25 -2 -26 2 0 4 -2 15 -4 24 -4 23 12 33 30 18 12
-10 16 -9 21 4 3 9 13 16 22 16 12 0 13 3 4 12 -9 9 -15 8 -27 -8 -14 -18 -15
-18 -38 10 l-23 29 0 -69z m90 -161 c21 -20 44 -26 38 -10 -1 5 2 6 8 2 6 -3
7 -12 3 -18 -12 -19 -13 -40 -2 -53 7 -8 6 -14 -1 -19 -6 -3 -7 -11 -4 -17 4
-7 2 -8 -4 -4 -7 4 -12 2 -12 -3 0 -6 5 -11 10 -11 23 0 -37 -45 -63 -46 -31
-2 -40 7 -31 30 5 14 10 13 37 -6 17 -12 27 -17 24 -11 -4 7 1 16 10 22 10 6
13 11 8 11 -6 0 -11 9 -12 20 -1 11 1 19 5 19 21 -3 32 2 26 12 -5 8 -9 8 -14
-1 -5 -9 -9 -9 -14 -1 -4 6 -2 11 3 11 6 0 11 5 11 11 0 5 -4 8 -9 4 -5 -3
-12 -1 -16 5 -4 6 -11 7 -17 4 -7 -5 -8 -2 -3 5 5 10 3 10 -12 0 -20 -12 -28
-43 -9 -32 6 4 2 -4 -9 -16 -12 -14 -14 -21 -6 -19 7 2 16 -4 19 -12 2 -8 1
-12 -3 -8 -5 4 -13 3 -20 -2 -8 -7 -11 6 -10 51 0 46 5 64 18 74 14 10 15 14
4 18 -8 3 -19 1 -24 -4 -6 -6 -10 -5 -10 4 0 21 56 14 81 -10z m1 -79 c0 -13
-6 -18 -19 -16 -11 2 -15 -1 -11 -7 3 -6 12 -11 20 -11 14 0 15 -24 0 -37 -4
-5 -5 -2 0 6 6 11 4 13 -9 8 -10 -4 -15 -3 -11 4 4 5 2 16 -5 24 -7 8 -7 15
-1 19 6 4 8 13 5 21 -4 9 1 13 13 11 10 -2 18 -11 18 -22z m46 -133 c-5 -9 -6
-21 -4 -27 6 -16 -28 -27 -41 -13 -8 9 -7 10 6 6 10 -3 20 -2 22 2 3 5 -5 7
-17 7 -12 -1 -29 3 -37 8 -12 9 -13 8 -4 -4 9 -11 9 -17 0 -25 -18 -15 -38
-17 -33 -3 2 7 11 12 18 10 11 -3 12 -1 2 9 -21 21 -15 26 28 25 22 -1 43 2
46 7 4 6 1 7 -7 2 -8 -5 -11 -4 -7 2 11 17 37 12 28 -6z"/>
<path d="M2735 1571 c3 -6 -2 -14 -12 -19 -9 -5 -18 -17 -19 -27 -2 -15 0 -15
20 -1 17 11 26 12 35 3 6 -6 18 -12 27 -13 11 -2 5 9 -17 32 -32 33 -46 43
-34 25z m31 -33 l19 -23 -22 18 c-14 12 -23 15 -28 8 -3 -6 -11 -11 -18 -11
-8 0 17 26 29 30 0 0 9 -10 20 -22z"/>
<path d="M230 1760 c0 -5 5 -10 11 -10 5 0 7 5 4 10 -3 6 -8 10 -11 10 -2 0
-4 -4 -4 -10z"/>
<path d="M2740 1725 c-9 -11 -16 -13 -24 -5 -14 14 -27 13 -23 -2 3 -20 20
-28 34 -16 7 6 14 7 14 2 6 -36 5 -54 0 -54 -4 0 -7 -8 -8 -18 -1 -11 6 -18
19 -19 15 -2 17 1 8 12 -8 10 -8 15 1 21 7 4 9 3 5 -4 -3 -6 -2 -13 3 -16 5
-3 7 -15 4 -25 -3 -10 1 -22 8 -26 7 -5 10 -4 5 3 -3 6 -2 13 4 17 6 4 4 17
-5 36 -12 22 -13 34 -4 50 10 19 8 20 -13 15 -12 -3 -18 -3 -11 0 7 3 11 11 9
17 -1 7 -1 9 1 5 3 -5 9 -8 15 -8 6 0 6 6 -2 15 -16 19 -24 19 -40 0z"/>
<path d="M2793 1700 c0 -22 1 -40 2 -40 4 0 35 61 35 69 0 3 -5 -1 -10 -9 -8
-13 -10 -12 -10 3 0 36 -16 15 -17 -23z"/>
<path d="M219 1681 c-20 -23 -23 -31 -12 -35 8 -4 11 -1 7 5 -4 8 0 8 14 0 22
-12 39 -33 25 -30 -22 4 -25 -2 -7 -16 12 -10 14 -14 4 -12 -8 2 -11 2 -7 -1
4 -2 0 -10 -10 -18 -17 -13 -17 -14 0 -8 10 4 17 1 17 -6 0 -6 -5 -8 -12 -4
-7 5 -8 2 -3 -7 6 -11 5 -12 -6 -1 -18 17 -32 15 -25 -3 3 -8 0 -15 -7 -15 -8
0 -8 -3 -2 -8 13 -8 13 -51 1 -71 -6 -9 -5 -12 2 -7 6 3 13 2 17 -4 3 -5 2
-10 -3 -10 -11 0 -9 -42 3 -79 5 -18 4 -22 -6 -16 -11 6 -11 5 -2 -5 10 -11 9
-16 -5 -27 -9 -8 -11 -12 -5 -8 8 4 18 -4 25 -19 6 -14 15 -26 19 -26 5 0 7
-6 5 -12 -1 -7 -1 -10 1 -5 3 4 9 5 14 1 5 -3 9 -1 9 3 0 5 -9 14 -20 21 -11
7 -20 17 -20 23 0 8 5 7 15 -1 9 -7 18 -10 22 -6 3 3 1 6 -5 6 -6 0 -9 8 -6
18 4 10 2 13 -3 7 -15 -18 -32 -15 -30 5 1 14 7 19 22 16 18 -3 20 1 21 60 0
51 -3 63 -14 62 -8 -2 -17 2 -19 9 -3 7 3 11 14 9 15 -3 19 2 18 24 0 16 -4
32 -8 36 -9 10 -9 26 1 21 4 -3 7 19 8 48 0 30 -3 52 -7 50 -4 -3 -12 1 -18 9
-9 11 -9 15 1 19 10 4 10 6 -1 6 -11 1 -11 4 -1 16 23 28 5 15 -21 -14z m36
-179 c-2 -9 -4 -19 -4 -22 -1 -3 -9 -6 -19 -7 -16 -1 -19 5 -18 36 1 37 2 38
22 24 12 -8 21 -22 19 -31z m-4 -68 c4 4 4 -73 0 -98 0 -5 -8 -3 -16 4 -9 7
-14 19 -11 27 3 7 2 13 -3 13 -4 0 -8 7 -8 15 0 8 4 15 8 15 9 0 6 20 -6 40
-6 11 -2 10 12 -3 11 -9 22 -15 24 -13z"/>
<path d="M224 1505 c0 -16 4 -21 15 -17 11 4 12 7 2 10 -10 3 -10 6 -1 12 9 5
8 9 -2 13 -9 3 -14 -3 -14 -18z"/>
<path d="M236 1393 c-6 -14 -5 -15 5 -6 7 7 10 15 7 18 -3 3 -9 -2 -12 -12z"/>
<path d="M235 1360 c3 -5 8 -10 11 -10 2 0 4 5 4 10 0 6 -5 10 -11 10 -5 0 -7
-4 -4 -10z"/>
<path d="M193 1626 c-3 -5 -1 -6 5 -2 7 4 10 -1 9 -14 -1 -11 -6 -20 -11 -20
-6 0 -5 -5 1 -11 15 -15 32 -3 28 19 -1 9 2 22 7 29 7 8 3 11 -12 10 -12 -1
-24 -6 -27 -11z"/>
<path d="M2755 1268 c2 -9 -4 -26 -12 -37 -8 -12 -10 -21 -4 -21 5 0 13 9 16
20 3 11 11 20 16 20 5 0 9 5 9 11 0 5 -4 8 -9 4 -5 -3 -11 0 -14 7 -2 7 -3 5
-2 -4z"/>
<path d="M2790 1270 c0 -5 5 -10 10 -10 6 0 10 5 10 10 0 6 -4 10 -10 10 -5 0
-10 -4 -10 -10z"/>
<path d="M197 1256 c-4 -9 -3 -15 2 -12 5 3 11 -4 14 -16 4 -12 9 -19 12 -16
4 3 0 18 -8 33 -12 23 -15 25 -20 11z"/>
<path d="M2810 1241 c0 -6 4 -12 8 -15 5 -3 9 1 9 9 0 8 -4 15 -9 15 -4 0 -8
-4 -8 -9z"/>
<path d="M2770 1238 c0 -2 9 -11 20 -21 11 -9 20 -13 20 -7 0 5 -9 14 -20 20
-11 6 -20 9 -20 8z"/>
<path d="M2670 1220 c0 -5 5 -10 10 -10 6 0 10 5 10 10 0 6 -4 10 -10 10 -5 0
-10 -4 -10 -10z"/>
<path d="M2764 1208 c1 -7 -6 -21 -16 -32 -10 -11 -16 -22 -13 -24 4 -5 20 10
45 42 8 11 10 17 3 13 -6 -4 -14 -2 -16 3 -3 6 -4 5 -3 -2z"/>
<path d="M2696 1195 c-6 -16 19 -33 31 -21 4 3 -1 6 -11 6 -9 0 -15 4 -11 10
3 5 13 7 23 4 14 -5 15 -4 2 5 -20 15 -27 14 -34 -4z"/>
<path d="M2810 1180 c0 -5 5 -10 11 -10 5 0 7 5 4 10 -3 6 -8 10 -11 10 -2 0
-4 -4 -4 -10z"/>
<path d="M230 1161 c0 -5 5 -13 10 -16 6 -3 10 -2 10 4 0 5 -4 13 -10 16 -5 3
-10 2 -10 -4z"/>
<path d="M2780 1154 c0 -8 -4 -13 -8 -10 -4 2 -14 0 -22 -5 -11 -7 -9 -8 9 -6
14 2 27 9 29 15 2 7 9 9 14 6 7 -4 8 -2 4 4 -10 17 -26 15 -26 -4z"/>
<path d="M207 1144 c7 -3 9 -13 6 -22 -4 -14 -3 -14 5 -2 12 16 7 30 -11 29
-9 0 -9 -2 0 -5z"/>
<path d="M2699 1148 c-4 -15 -6 -50 -3 -41 3 7 5 15 4 19 -1 4 4 11 12 15 10
7 10 9 1 9 -7 0 -13 -1 -14 -2z"/>
<path d="M2814 1135 c-3 -8 -4 -20 -2 -27 3 -7 7 -1 10 15 6 29 1 36 -8 12z"/>
<path d="M250 1125 c0 -7 30 -13 34 -7 3 4 -4 9 -15 9 -10 1 -19 0 -19 -2z"/>
<path d="M2716 1115 c-9 -26 -7 -32 5 -12 6 10 9 21 6 23 -2 3 -7 -2 -11 -11z"/>
<path d="M2780 1110 c-6 -11 -8 -20 -6 -20 3 0 10 9 16 20 6 11 8 20 6 20 -3
0 -10 -9 -16 -20z"/>
<path d="M237 1109 c7 -7 15 -10 18 -7 3 3 -2 9 -12 12 -14 6 -15 5 -6 -5z"/>
<path d="M2750 1110 c-9 -6 -10 -10 -3 -10 6 0 15 5 18 10 8 12 4 12 -15 0z"/>
<path d="M250 1079 c0 -5 5 -7 10 -4 6 3 10 8 10 11 0 2 -4 4 -10 4 -5 0 -10
-5 -10 -11z"/>
<path d="M2724 1079 c-3 -6 -1 -16 5 -22 9 -9 10 -7 5 7 -5 13 -4 17 4 12 7
-4 12 -2 12 3 0 14 -17 14 -26 0z"/>
<path d="M2811 1074 c0 -11 3 -14 6 -6 3 7 2 16 -1 19 -3 4 -6 -2 -5 -13z"/>
<path d="M320 1071 c0 -6 4 -13 10 -16 6 -3 7 1 4 9 -7 18 -14 21 -14 7z"/>
<path d="M273 1055 c0 -8 4 -12 9 -9 4 3 8 9 8 15 0 5 -4 9 -8 9 -5 0 -9 -7
-9 -15z"/>
<path d="M2750 1039 c0 -5 5 -7 10 -4 6 3 10 8 10 11 0 2 -4 4 -10 4 -5 0 -10
-5 -10 -11z"/>
<path d="M2676 1031 c-3 -5 1 -11 9 -14 9 -4 12 -1 8 9 -6 16 -10 17 -17 5z"/>
<path d="M346 1017 c3 -10 9 -15 12 -12 3 3 0 11 -7 18 -10 9 -11 8 -5 -6z"/>
<path d="M2720 1020 c-9 -6 -10 -10 -3 -10 6 0 15 5 18 10 8 12 4 12 -15 0z"/>
<path d="M379 1018 c-8 -27 -5 -36 9 -30 10 4 12 7 4 10 -7 2 -10 8 -6 13 3 5
3 9 0 9 -3 0 -6 -1 -7 -2z"/>
<path d="M330 1001 c0 -6 4 -13 10 -16 6 -3 7 1 4 9 -7 18 -14 21 -14 7z"/>
<path d="M2741 994 c0 -11 3 -14 6 -6 3 7 2 16 -1 19 -3 4 -6 -2 -5 -13z"/>
<path d="M2795 1000 c3 -5 8 -10 11 -10 2 0 4 5 4 10 0 6 -5 10 -11 10 -5 0
-7 -4 -4 -10z"/>
<path d="M2709 977 c6 -8 7 -18 3 -22 -4 -5 -1 -5 6 -1 10 6 10 11 1 22 -6 8
-14 14 -16 14 -3 0 0 -6 6 -13z"/>
<path d="M2787 979 c7 -7 15 -10 18 -7 3 3 -2 9 -12 12 -14 6 -15 5 -6 -5z"/>
<path d="M2753 952 c-8 -14 -8 -19 1 -19 7 0 13 9 13 19 1 10 1 18 0 18 -1 0
-7 -8 -14 -18z"/>
<path d="M431 947 c-8 -10 -7 -14 2 -14 8 0 14 6 14 14 0 7 -1 13 -2 13 -2 0
-8 -6 -14 -13z"/>
<path d="M2703 924 c9 -11 14 -23 11 -26 -3 -3 -1 -8 4 -12 18 -11 8 25 -12
41 -21 18 -21 18 -3 -3z"/>
<path d="M480 880 c-9 -6 -10 -10 -3 -10 6 0 15 5 18 10 8 12 4 12 -15 0z"/>
<path d="M2695 780 c3 -5 8 -10 11 -10 2 0 4 5 4 10 0 6 -5 10 -11 10 -5 0 -7
-4 -4 -10z"/>
<path d="M2740 760 c-9 -6 -10 -10 -3 -10 6 0 15 5 18 10 8 12 4 12 -15 0z"/>
</g>
</svg>
